<svg xmlns="http://www.w3.org/2000/svg" width="45" height="45" viewBox="0 0 45 45" fill="none"><g clip-path="url(#clip0_212_929)"><path d="M9.38455 37.9231C9.49027 37.923 9.59492 37.9037 9.69243 37.8663C9.78994 37.8288 9.87836 37.774 9.95255 37.7049L10.4445 37.2393C11.3125 36.4198 12.5245 35.9119 13.8665 35.9119C15.2085 35.9119 16.4205 36.4198 17.2885 37.2393L17.2905 37.2411L17.7945 37.7141C17.8687 37.7831 17.9572 37.838 18.0547 37.8754C18.1522 37.9129 18.2568 37.9322 18.3625 37.9323C18.5825 37.9323 18.7845 37.8479 18.9245 37.7141L19.4565 37.2191C19.9006 36.8041 20.4307 36.4745 21.0155 36.2497C21.6004 36.025 22.2284 35.9095 22.8625 35.9101C24.2085 35.9101 25.4265 36.4216 26.2945 37.2429L26.2965 37.2448L26.7765 37.6958C26.85 37.7657 26.9379 37.8215 27.0353 37.8598C27.1326 37.8981 27.2374 37.9181 27.3433 37.9186C27.4492 37.9191 27.5542 37.9001 27.6519 37.8628C27.7497 37.8255 27.8383 37.7705 27.9125 37.7013L28.4005 37.2393C29.2685 36.4198 30.4805 35.9119 31.8225 35.9119C33.1645 35.9119 34.3765 36.4198 35.2445 37.2393L35.2465 37.2411L35.7465 37.7068C35.8195 37.7778 35.9075 37.8344 36.0052 37.8731C36.1029 37.9118 36.2081 37.9317 36.3145 37.9317C36.421 37.9317 36.5262 37.9118 36.6239 37.8731C36.7216 37.8344 36.8096 37.7778 36.8825 37.7068L37.3745 37.2411C37.6985 36.9404 38.0665 36.6819 38.4705 36.4748L38.4945 36.4638C35.9918 34.3543 33.0646 32.7122 29.8765 31.6293L29.6945 31.5761C28.3465 26.3034 29.5345 19.3771 31.3865 14.1393C31.4285 14.0989 31.4665 14.0623 31.5025 14.0219C32.9923 14.3543 34.3174 15.1353 35.2656 16.2398C36.2138 17.3444 36.7304 18.7086 36.7325 20.1141C36.7325 21.6871 36.1005 23.1244 35.0565 24.2244L35.0645 24.2171L35.2105 24.2189C37.0236 24.2189 38.7623 23.5587 40.0443 22.3836C41.3263 21.2084 42.0465 19.6145 42.0465 17.9526C42.0465 16.2907 41.3263 14.6968 40.0443 13.5216C38.7623 12.3465 37.0236 11.6863 35.2105 11.6863L34.9885 11.6899H34.9985C35.5205 11.5524 36.1245 11.4571 36.7485 11.4241H36.7705C38.0805 11.3274 39.3948 11.5527 40.5781 12.0767C41.7614 12.6006 42.7709 13.4044 43.5025 14.4051L43.5185 14.4289C43.9309 13.6499 44.1189 12.7872 44.0645 11.9228V11.9356C43.8352 10.2911 42.9059 8.79637 41.4792 7.7774C40.0525 6.75843 38.2442 6.29785 36.4485 6.49609L36.4805 6.49243C36.032 6.51263 35.5863 6.56907 35.1485 6.66109L35.2006 6.65193L35.2025 6.49426C35.2025 6.04692 35.1545 5.61059 35.0645 5.18893L35.0725 5.23109C34.8643 3.73637 34.0192 2.37795 32.7218 1.45253C31.4245 0.527124 29.7803 0.109934 28.1485 0.292092L28.1785 0.290258C27.2985 0.451592 26.5245 0.798092 25.8825 1.28392L25.8905 1.27842C26.8268 1.5795 27.6765 2.07085 28.3761 2.71569C29.0758 3.36052 29.6072 4.14212 29.9305 5.00193L29.9445 5.04409C29.3762 4.61426 28.7554 4.24635 28.0945 3.94776L28.0385 3.92393C23.9845 2.11992 19.3685 3.15943 17.7285 6.25409C17.2811 7.09603 17.0851 8.03163 17.1605 8.96559L17.1585 8.94909C18.485 8.19323 20.0167 7.79487 21.5785 7.79959C23.0145 7.79959 24.3685 8.12959 25.5505 8.71076L25.5045 8.69059C26.1157 8.96418 26.6942 9.29536 27.2305 9.67876L27.2085 9.66409C25.6263 9.07419 23.8712 8.99906 22.2358 9.45122C20.6005 9.90338 19.1835 10.8555 18.2209 12.1491C17.2583 13.4426 16.8083 14.9994 16.9458 16.5601C17.0833 18.1208 17.8 19.5913 18.9765 20.7264L18.9725 20.7228C19.7105 21.4341 20.6125 21.9988 21.6225 22.3636L21.6725 22.3801C21.2781 21.29 21.189 20.1265 21.4136 18.9966C21.6382 17.8667 22.1692 16.8068 22.9578 15.9143C23.7463 15.0218 24.7671 14.3255 25.9262 13.8894C27.0853 13.4533 28.3454 13.2915 29.5905 13.4188L29.5565 13.4151C25.4805 20.5688 23.0345 26.1494 22.6265 30.4486H22.5265C20.5264 30.4505 18.5365 30.7091 16.6145 31.2168L16.7665 31.1819C14.5015 29.0396 12.802 26.4501 11.7985 23.6121L11.7565 23.4746C11.7565 23.4453 11.7565 23.4159 11.7685 23.3921C12.3455 23.168 12.9757 23.084 13.5983 23.1483C14.221 23.2127 14.815 23.423 15.323 23.7592C15.8311 24.0954 16.236 24.5459 16.4987 25.0674C16.7614 25.5888 16.8729 26.1636 16.8225 26.7361V26.7251C17.2149 26.4652 17.5469 26.1362 17.7991 25.7574C18.0512 25.3786 18.2185 24.9576 18.2912 24.5188C18.3638 24.0801 18.3404 23.6325 18.2222 23.2022C18.104 22.7718 17.8935 22.3674 17.6029 22.0125C17.3123 21.6575 16.9475 21.3593 16.5297 21.135C16.112 20.9108 15.6497 20.7651 15.1698 20.7065C14.69 20.6479 14.2022 20.6775 13.7349 20.7936C13.2677 20.9097 12.8304 21.11 12.4485 21.3828L12.4565 21.3773C12.6513 21.1494 12.8711 20.9405 13.1125 20.7539L13.1205 20.7484C13.8376 20.1724 14.7591 19.8556 15.7125 19.8574C16.1925 19.8574 16.6545 19.9363 17.0805 20.0811L17.0525 20.0738C16.9572 19.6194 16.7385 19.1944 16.4165 18.8381L16.4205 18.8418C16.0809 18.5155 15.6724 18.2559 15.22 18.0788C14.7675 17.9017 14.2805 17.8107 13.7885 17.8114C12.8205 17.8114 11.9405 18.1579 11.2885 18.7226L11.2905 18.7208C11.1125 18.8583 10.9505 19.0031 10.8025 19.1571L10.7985 19.1608C10.6369 18.9568 10.4548 18.7671 10.2545 18.5943L10.2525 18.5924C9.94371 18.2962 9.57243 18.0606 9.16125 17.8998C8.75007 17.7391 8.30755 17.6566 7.86055 17.6574C7.01664 17.6562 6.2043 17.9515 5.59055 18.4824L5.59255 18.4806C5.29255 18.7794 5.07055 19.1461 4.95655 19.5531L4.95255 19.5696C5.46403 19.4228 6.00571 19.3868 6.53495 19.4644C7.06419 19.542 7.56657 19.7311 8.00255 20.0169L7.99255 20.0096C7.57835 19.9925 7.16342 20.0208 6.75655 20.0939L6.78855 20.0884C5.73308 20.1886 4.76305 20.6656 4.08824 21.4163C3.41343 22.167 3.08808 23.1309 3.18255 24.0998L3.18055 24.0851C3.28855 24.5948 3.53055 25.0421 3.87455 25.4088L3.87055 25.4051C4.46455 24.0668 5.76255 23.0951 7.33255 22.8696L7.35855 22.8659C7.71205 22.8019 8.07243 22.7754 8.43255 22.7871H8.42455C7.40453 23.0382 6.53511 23.6505 6.00757 24.4893C5.48003 25.328 5.33758 26.3245 5.61155 27.2595C5.88552 28.1945 6.55347 28.9915 7.46846 29.4751C8.38345 29.9586 9.47053 30.0892 10.4905 29.8381L10.4625 29.8436C9.84137 29.4424 9.35801 28.887 9.06927 28.2427C8.78053 27.5984 8.69841 26.8919 8.83255 26.2063L8.82855 26.2283C8.92657 25.7104 9.14617 25.2182 9.47216 24.7858C9.79815 24.3534 10.2227 23.9911 10.7165 23.7239L10.7345 23.7148C11.1107 26.7767 11.9977 29.7675 13.3645 32.5826L13.2805 32.3901C10.8368 33.4492 8.57819 34.835 6.57855 36.5023L6.60055 36.4839C7.45855 36.7516 8.18855 37.1824 8.78055 37.7379L8.78255 37.7398C8.95244 37.8608 9.1614 37.9265 9.37655 37.9268L9.38455 37.9231Z" fill="#1FABAD"></path><path d="M2.40646 39.8078C2.51705 39.8073 2.62645 39.7868 2.72839 39.7475C2.83032 39.7081 2.92278 39.6507 3.00046 39.5786C3.24715 39.3454 3.54238 39.16 3.86867 39.0333C4.19497 38.9066 4.54568 38.8412 4.90004 38.8411C5.25439 38.8409 5.60518 38.9059 5.93162 39.0323C6.25806 39.1587 6.5535 39.3438 6.80046 39.5768C7.45846 40.1946 8.37446 40.5778 9.39046 40.5778C10.4065 40.5778 11.3225 40.1946 11.9785 39.5768L12.4705 39.1148C12.6529 38.9419 12.8713 38.8044 13.1129 38.7105C13.3544 38.6166 13.6141 38.5683 13.8765 38.5683C14.1388 38.5683 14.3985 38.6166 14.64 38.7105C14.8816 38.8044 15.1001 38.9419 15.2825 39.1148L15.7865 39.5878C16.4425 40.2074 17.3585 40.5906 18.3745 40.5906C19.3825 40.5906 20.2965 40.2111 20.9505 39.5988L21.4865 39.1038C21.6689 38.9322 21.8872 38.796 22.1282 38.7033C22.3693 38.6106 22.6282 38.5633 22.8896 38.5642C23.151 38.565 23.4095 38.614 23.6498 38.7083C23.8901 38.8026 24.1073 38.9402 24.2885 39.1129L24.7685 39.5639C25.4205 40.1873 26.3385 40.5759 27.3545 40.5759H27.3605C28.3765 40.5759 29.2925 40.1891 29.9465 39.5694L29.9485 39.5676L30.4365 39.1093C30.6191 38.9368 30.8377 38.7998 31.0792 38.7062C31.3207 38.6126 31.5803 38.5644 31.8425 38.5644C32.1047 38.5644 32.3642 38.6126 32.6057 38.7062C32.8472 38.7998 33.0658 38.9368 33.2485 39.1093L33.7405 39.5713C34.3965 40.1891 35.3125 40.5723 36.3265 40.5723C37.3405 40.5723 38.2565 40.1891 38.9125 39.5713L39.4065 39.1038C39.5889 38.9309 39.8073 38.7934 40.0489 38.6995C40.2904 38.6056 40.5501 38.5572 40.8125 38.5572C41.0748 38.5572 41.3345 38.6056 41.576 38.6995C41.8176 38.7934 42.0361 38.9309 42.2185 39.1038C42.295 39.177 42.3869 39.2352 42.4886 39.275C42.5904 39.3148 42.6998 39.3353 42.8105 39.3353C42.9211 39.3353 43.0305 39.3148 43.1323 39.275C43.234 39.2352 43.3259 39.177 43.4025 39.1038C43.5601 38.9535 43.6482 38.7531 43.6482 38.5446C43.6482 38.3361 43.5601 38.1357 43.4025 37.9854C43.0663 37.6677 42.664 37.415 42.2193 37.2425C41.7747 37.0699 41.2967 36.9808 40.8139 36.9807C40.331 36.9805 39.853 37.0692 39.4082 37.2415C38.9634 37.4137 38.5609 37.6661 38.2245 37.9836L37.7325 38.4493C37.5501 38.6221 37.3316 38.7596 37.09 38.8535C36.8485 38.9474 36.5888 38.9958 36.3265 38.9958C36.0641 38.9958 35.8044 38.9474 35.5629 38.8535C35.3213 38.7596 35.1029 38.6221 34.9205 38.4493L34.4285 37.9836C34.0923 37.6658 33.69 37.4132 33.2453 37.2406C32.8007 37.068 32.3227 36.979 31.8399 36.9788C31.357 36.9787 30.879 37.0673 30.4342 37.2396C29.9894 37.4119 29.5869 37.6643 29.2505 37.9818L28.7625 38.4401C28.5794 38.6121 28.3605 38.7488 28.1188 38.8419C27.877 38.935 27.6174 38.9828 27.3552 38.9822C27.093 38.9817 26.8336 38.933 26.5923 38.8389C26.351 38.7449 26.1327 38.6074 25.9505 38.4346L25.4705 37.9836C25.1368 37.6645 24.7365 37.4102 24.2933 37.2358C23.8502 37.0615 23.3733 36.9707 22.8911 36.9688C22.4089 36.9669 21.9312 37.054 21.4865 37.2249C21.0418 37.3957 20.6391 37.6469 20.3025 37.9634L19.7705 38.4584C19.5874 38.6291 19.369 38.7644 19.128 38.8565C18.8871 38.9487 18.6284 38.9957 18.3674 38.9948C18.1063 38.994 17.848 38.9453 17.6078 38.8516C17.3675 38.7579 17.1502 38.6211 16.9685 38.4493L16.4645 37.9763C15.8065 37.3584 14.8905 36.9753 13.8745 36.9753C12.8585 36.9753 11.9425 37.3584 11.2865 37.9763L10.7945 38.4383C10.6126 38.6106 10.3947 38.7476 10.1538 38.8411C9.91297 38.9347 9.65405 38.9828 9.39246 38.9828H9.38246C9.12223 38.9829 8.86463 38.9349 8.6251 38.8417C8.38557 38.7485 8.16904 38.6119 7.98846 38.4401C7.20646 37.7013 6.11446 37.2429 4.90446 37.2429C3.69446 37.2429 2.60246 37.7013 1.82246 38.4383L1.82046 38.4401C1.6626 38.5904 1.57458 38.791 1.57495 38.9996C1.57533 39.2083 1.66406 39.4086 1.82246 39.5584C1.89685 39.6345 1.98776 39.6955 2.08936 39.7375C2.19096 39.7795 2.30101 39.8015 2.41246 39.8023L2.40646 39.8078Z" fill="#1FABAD"></path><path d="M43.3943 41.5935C43.0582 41.2757 42.6558 41.0231 42.2112 40.8505C41.7666 40.6779 41.2886 40.5889 40.8058 40.5887C40.3229 40.5885 39.8449 40.6772 39.4001 40.8495C38.9553 41.0218 38.5528 41.2741 38.2163 41.5916L37.7243 42.0573C37.5417 42.2297 37.3231 42.3668 37.0816 42.4604C36.8401 42.554 36.5806 42.6022 36.3183 42.6022C36.0561 42.6022 35.7966 42.554 35.5551 42.4604C35.3136 42.3668 35.095 42.2297 34.9123 42.0573L34.4183 41.5898C34.0822 41.2721 33.6798 41.0194 33.2352 40.8468C32.7905 40.6742 32.3126 40.5852 31.8298 40.585C31.3469 40.5849 30.8689 40.6735 30.4241 40.8458C29.9793 41.0181 29.5768 41.2705 29.2403 41.5879L28.7523 42.0463C28.5693 42.2183 28.3504 42.355 28.1087 42.4481C27.8669 42.5412 27.6073 42.5889 27.3451 42.5884C27.0829 42.5879 26.8234 42.5392 26.5822 42.4451C26.3409 42.3511 26.1226 42.2136 25.9403 42.0408L25.4603 41.5898C25.1267 41.2707 24.7263 41.0164 24.2832 40.842C23.8401 40.6677 23.3632 40.5769 22.881 40.575C22.3988 40.5731 21.9211 40.6602 21.4764 40.8311C21.0316 41.0019 20.629 41.2531 20.2923 41.5696L19.7603 42.0646C19.5773 42.2353 19.3589 42.3706 19.1179 42.4627C18.8769 42.5549 18.6183 42.6019 18.3572 42.601C18.0962 42.6002 17.8379 42.5515 17.5977 42.4578C17.3574 42.3641 17.1401 42.2273 16.9583 42.0555L16.4543 41.5824C16.1182 41.2647 15.7158 41.0121 15.2712 40.8395C14.8265 40.6669 14.3486 40.5779 13.8658 40.5777C13.3829 40.5775 12.9049 40.6662 12.4601 40.8385C12.0153 41.0108 11.6128 41.2631 11.2763 41.5806L10.7843 42.0463C10.602 42.2192 10.3835 42.3566 10.1419 42.4505C9.90039 42.5444 9.64071 42.5928 9.37835 42.5928C9.11598 42.5928 8.8563 42.5444 8.61476 42.4505C8.37321 42.3566 8.15474 42.2192 7.97235 42.0463C7.19035 41.3074 6.09835 40.8491 4.88835 40.8491C3.67835 40.8491 2.58635 41.3075 1.80635 42.0445L1.80435 42.0463C1.64649 42.1966 1.55847 42.3972 1.55884 42.6058C1.55921 42.8145 1.64795 43.0148 1.80635 43.1646C1.88267 43.2386 1.9746 43.2977 2.07656 43.3381C2.17852 43.3786 2.28839 43.3996 2.39949 43.3999C2.51059 43.4003 2.62061 43.3799 2.72286 43.3401C2.82512 43.3003 2.91748 43.2418 2.99435 43.1683C3.24103 42.9351 3.53627 42.7497 3.86256 42.623C4.18885 42.4963 4.53957 42.4309 4.89392 42.4308C5.24828 42.4306 5.59907 42.4956 5.9255 42.622C6.25194 42.7484 6.54739 42.9335 6.79435 43.1665C7.45235 43.7843 8.36835 44.1675 9.38435 44.1675C10.4003 44.1675 11.3163 43.7843 11.9723 43.1665L12.4643 42.7045C12.647 42.532 12.8656 42.395 13.1071 42.3014C13.3486 42.2078 13.6081 42.1596 13.8703 42.1596C14.1325 42.1596 14.3921 42.2078 14.6336 42.3014C14.8751 42.395 15.0937 42.532 15.2763 42.7045L15.7803 43.1775C16.1151 43.4947 16.5158 43.7472 16.9589 43.92C17.4019 44.0928 17.8783 44.1823 18.3598 44.1834C18.8413 44.1844 19.3181 44.0969 19.7621 43.926C20.206 43.7551 20.608 43.5043 20.9443 43.1885L21.4803 42.6935C21.6628 42.5219 21.8811 42.3857 22.1221 42.293C22.3632 42.2003 22.6221 42.153 22.8835 42.1539C23.1449 42.1547 23.4034 42.2037 23.6437 42.298C23.884 42.3923 24.1012 42.5299 24.2823 42.7026L24.7623 43.1536C25.4143 43.777 26.3323 44.1656 27.3483 44.1656H27.3543C28.3683 44.1656 29.2843 43.7806 29.9383 43.1609V43.1591L30.4263 42.7008C30.6087 42.5279 30.8272 42.3904 31.0688 42.2966C31.3103 42.2027 31.57 42.1543 31.8323 42.1543C32.0947 42.1543 32.3544 42.2027 32.5959 42.2966C32.8375 42.3904 33.056 42.5279 33.2383 42.7008L33.7303 43.1628C34.3863 43.7806 35.3023 44.1638 36.3163 44.1638C37.3303 44.1638 38.2463 43.7806 38.9023 43.1628L39.3943 42.7008C39.5767 42.5279 39.7952 42.3904 40.0368 42.2966C40.2783 42.2027 40.538 42.1543 40.8003 42.1543C41.0627 42.1543 41.3224 42.2027 41.5639 42.2966C41.8055 42.3904 42.0239 42.5279 42.2063 42.7008C42.2829 42.774 42.3748 42.8322 42.4765 42.872C42.5783 42.9118 42.6877 42.9323 42.7983 42.9323C42.909 42.9323 43.0184 42.9118 43.1202 42.872C43.2219 42.8322 43.3138 42.774 43.3903 42.7008C43.5518 42.5526 43.6429 42.3519 43.6436 42.1424C43.6444 41.9329 43.5548 41.7316 43.3943 41.5824V41.5935Z" fill="#1FABAD"></path></g><defs><clipPath id="clip0_212_929"><rect width="44" height="44" fill="white" transform="translate(0.00244141 0.189453)"></rect></clipPath></defs></svg>