<svg xmlns="http://www.w3.org/2000/svg" width="45" height="45" viewBox="0 0 45 45" fill="none"><path d="M36.9583 15.0109L31.8351 19.8214L37.0254 34.0944C37.1148 34.3404 37.1322 34.6067 37.0755 34.8622C37.0188 35.1177 36.8904 35.3517 36.7054 35.5368L32.5804 39.6618C32.4375 39.8047 32.2648 39.9143 32.0747 39.9829C31.8846 40.0515 31.6817 40.0773 31.4804 40.0585C31.2792 40.0398 31.0845 39.9768 30.9104 39.8742C30.7362 39.7717 30.5868 39.6319 30.4728 39.465L23.1532 28.7509L19.9207 31.7297V35.2519C19.9207 35.6166 19.7758 35.9664 19.5179 36.2242L16.0804 39.6618C15.9151 39.827 15.7104 39.9475 15.4856 40.0117C15.2608 40.0758 15.0234 40.0816 14.7957 40.0285C14.568 39.9754 14.3577 39.8651 14.1845 39.708C14.0113 39.551 13.8811 39.3524 13.806 39.131L11.5847 32.5805L5.04247 30.3669C4.82095 30.2919 4.62222 30.1617 4.46505 29.9885C4.30787 29.8154 4.19746 29.605 4.14424 29.3773C4.09102 29.1496 4.09675 28.912 4.16089 28.6872C4.22504 28.4623 4.34547 28.2575 4.51081 28.0921L7.94831 24.6546C8.20623 24.3968 8.55598 24.2519 8.92065 24.2519H12.4762L15.6999 21.0281L4.72047 13.7085C4.55121 13.5956 4.40909 13.4466 4.30437 13.2722C4.19965 13.0978 4.13493 12.9023 4.11488 12.6999C4.09482 12.4974 4.11994 12.2931 4.18841 12.1015C4.25688 11.9099 4.36699 11.7359 4.51083 11.5921L8.63583 7.46708C8.8209 7.2821 9.05489 7.15375 9.31035 7.09708C9.5658 7.04041 9.83212 7.05779 10.078 7.14716L24.3544 12.3387L28.9273 7.50199C28.9764 7.42958 29.0322 7.36202 29.0942 7.30024C30.0983 6.2962 31.4518 5.71941 32.8715 5.69059C34.2912 5.66176 35.6671 6.18314 36.7111 7.1456C37.7552 8.10806 38.3865 9.43702 38.473 10.8544C38.5596 12.2717 38.0946 13.6676 37.1754 14.7499C37.114 14.8455 37.0411 14.9332 36.9583 15.0109Z" fill="#1FABAD"></path></svg>