<svg xmlns="http://www.w3.org/2000/svg" width="45" height="45" viewBox="0 0 45 45" fill="none"><path d="M10.2453 4.31445C9.33365 4.31445 8.45931 4.67662 7.81465 5.32127L5.43283 7.70309C2.74798 10.3879 2.74798 14.741 5.43283 17.4258C7.88428 19.8773 11.7265 20.0904 14.4197 18.0651C15.5681 18.9273 16.9968 19.4395 18.5442 19.4395C20.0918 19.4395 21.5207 18.9271 22.6692 18.0647C23.8177 18.9271 25.2466 19.4395 26.7942 19.4395C28.3416 19.4395 29.7703 18.9273 30.9187 18.0651C33.6119 20.0904 37.4541 19.8773 39.9055 17.4258C42.5904 14.741 42.5904 10.3879 39.9055 7.70309L37.5237 5.32128C36.8791 4.67662 36.0047 4.31446 35.0931 4.31446L10.2453 4.31445Z" fill="#1FABAD"></path><path fill-rule="evenodd" clip-rule="evenodd" d="M6.16919 37.3145V21.2638C8.77291 22.4985 11.8157 22.4976 14.42 21.2625C15.6707 21.8563 17.0704 22.1895 18.5442 22.1895C20.0183 22.1895 21.4183 21.8561 22.6692 21.2621C23.9201 21.8561 25.3201 22.1895 26.7942 22.1895C28.268 22.1895 29.6677 21.8563 30.9184 21.2625C33.5227 22.4976 36.5655 22.4985 39.1692 21.2638V37.3145H40.5442C41.3036 37.3145 41.9192 37.9301 41.9192 38.6895C41.9192 39.4489 41.3036 40.0645 40.5442 40.0645H4.79419C4.0348 40.0645 3.41919 39.4489 3.41919 38.6895C3.41919 37.9301 4.0348 37.3145 4.79419 37.3145H6.16919ZM11.6692 26.3145C11.6692 25.5551 12.2848 24.9395 13.0442 24.9395H18.5442C19.3036 24.9395 19.9192 25.5551 19.9192 26.3145V31.8145C19.9192 32.5738 19.3036 33.1895 18.5442 33.1895H13.0442C12.2848 33.1895 11.6692 32.5738 11.6692 31.8145V26.3145ZM26.7942 24.9395C26.0348 24.9395 25.4192 25.5551 25.4192 26.3145V35.9395C25.4192 36.6988 26.0348 37.3145 26.7942 37.3145H32.2942C33.0536 37.3145 33.6692 36.6988 33.6692 35.9395V26.3145C33.6692 25.5551 33.0536 24.9395 32.2942 24.9395H26.7942Z" fill="#1FABAD"></path></svg>