<svg xmlns="http://www.w3.org/2000/svg" width="45" height="45" viewBox="0 0 45 45" fill="none"><path d="M22.6692 13.9395C20.391 13.9395 18.5442 15.7863 18.5442 18.0645C18.5442 20.3426 20.391 22.1895 22.6692 22.1895C24.9474 22.1895 26.7942 20.3426 26.7942 18.0645C26.7942 15.7863 24.9474 13.9395 22.6692 13.9395Z" fill="#1FABAD"></path><path fill-rule="evenodd" clip-rule="evenodd" d="M3.41919 9.12695C3.41919 7.22847 4.95821 5.68945 6.85669 5.68945H38.4817C40.3802 5.68945 41.9192 7.22847 41.9192 9.12695V27.002C41.9192 28.9004 40.3802 30.4395 38.4817 30.4395H6.85669C4.95821 30.4395 3.41919 28.9004 3.41919 27.002V9.12695ZM15.7942 18.0645C15.7942 14.2675 18.8722 11.1895 22.6692 11.1895C26.4661 11.1895 29.5442 14.2675 29.5442 18.0645C29.5442 21.8614 26.4661 24.9395 22.6692 24.9395C18.8722 24.9395 15.7942 21.8614 15.7942 18.0645ZM35.0442 16.6895C34.2848 16.6895 33.6692 17.3051 33.6692 18.0645V18.0782C33.6692 18.8376 34.2848 19.4532 35.0442 19.4532H35.0579C35.8173 19.4532 36.4329 18.8376 36.4329 18.0782V18.0645C36.4329 17.3051 35.8173 16.6895 35.0579 16.6895H35.0442ZM8.91919 18.0645C8.91919 17.3051 9.5348 16.6895 10.2942 16.6895H10.3079C11.0673 16.6895 11.6829 17.3051 11.6829 18.0645V18.0782C11.6829 18.8376 11.0673 19.4532 10.3079 19.4532H10.2942C9.5348 19.4532 8.91919 18.8376 8.91919 18.0782V18.0645Z" fill="#1FABAD"></path><path d="M4.79419 33.1895C4.0348 33.1895 3.41919 33.8051 3.41919 34.5645C3.41919 35.3238 4.0348 35.9395 4.79419 35.9395C14.6943 35.9395 24.2829 37.2635 33.3938 39.7434C35.5765 40.3375 37.7942 38.7202 37.7942 36.4072V34.5645C37.7942 33.8051 37.1786 33.1895 36.4192 33.1895H4.79419Z" fill="#1FABAD"></path></svg>