<svg xmlns="http://www.w3.org/2000/svg" width="45" height="45" viewBox="0 0 45 45" fill="none"><g clip-path="url(#clip0_212_960)"><path fill-rule="evenodd" clip-rule="evenodd" d="M11.553 34.2887C12.2823 34.2887 12.9818 33.999 13.4974 33.4833C14.0131 32.9676 14.3028 32.2682 14.3028 31.5389C14.3028 30.8096 14.0131 30.1101 13.4974 29.5944C12.9818 29.0788 12.2823 28.789 11.553 28.789C10.8237 28.789 10.1243 29.0788 9.60861 29.5944C9.09292 30.1101 8.80321 30.8096 8.80321 31.5389C8.80321 32.2682 9.09292 32.9676 9.60861 33.4833C10.1243 33.999 10.8237 34.2887 11.553 34.2887ZM11.553 37.5885C13.1575 37.5885 14.6962 36.9511 15.8307 35.8166C16.9653 34.6821 17.6026 33.1433 17.6026 31.5389C17.6026 29.9344 16.9653 28.3957 15.8307 27.2611C14.6962 26.1266 13.1575 25.4893 11.553 25.4893C9.94857 25.4893 8.40983 26.1266 7.27531 27.2611C6.14079 28.3957 5.50342 29.9344 5.50342 31.5389C5.50342 33.1433 6.14079 34.6821 7.27531 35.8166C8.40983 36.9511 9.94857 37.5885 11.553 37.5885ZM37.4014 34.2887C38.1307 34.2887 38.8301 33.999 39.3458 33.4833C39.8615 32.9676 40.1512 32.2682 40.1512 31.5389C40.1512 30.8096 39.8615 30.1101 39.3458 29.5944C38.8301 29.0788 38.1307 28.789 37.4014 28.789C36.6721 28.789 35.9726 29.0788 35.4569 29.5944C34.9412 30.1101 34.6515 30.8096 34.6515 31.5389C34.6515 32.2682 34.9412 32.9676 35.4569 33.4833C35.9726 33.999 36.6721 34.2887 37.4014 34.2887ZM37.4014 37.5885C39.0058 37.5885 40.5446 36.9511 41.6791 35.8166C42.8136 34.6821 43.451 33.1433 43.451 31.5389C43.451 29.9344 42.8136 28.3957 41.6791 27.2611C40.5446 26.1266 39.0058 25.4893 37.4014 25.4893C35.7969 25.4893 34.2582 26.1266 33.1236 27.2611C31.9891 28.3957 31.3517 29.9344 31.3517 31.5389C31.3517 33.1433 31.9891 34.6821 33.1236 35.8166C34.2582 36.9511 35.7969 37.5885 37.4014 37.5885Z" fill="#1FABAD"></path><path d="M32.2954 32.3968C31.697 32.5024 31.1162 32.0998 31.1206 31.4927C31.1313 30.0782 31.6373 28.7123 32.5506 27.6322C33.4639 26.5521 34.7269 25.8262 36.1199 25.5806C37.5129 25.3351 38.9479 25.5854 40.1755 26.2881C41.4031 26.9908 42.3456 28.1015 42.8393 29.427C43.0516 29.9957 42.6424 30.572 42.044 30.6776L32.2954 32.3968Z" fill="#1FABAD"></path><path fill-rule="evenodd" clip-rule="evenodd" d="M40.009 27.4825C39.2843 26.975 38.4367 26.6709 37.5546 26.6021C36.6724 26.5333 35.788 26.7022 34.9933 27.0912C34.1986 27.4803 33.5227 28.0752 33.036 28.8141C32.5493 29.5531 32.2696 30.409 32.2259 31.2927L41.7315 29.6164C41.3698 28.7571 40.7727 28.0174 40.009 27.4825ZM35.9283 24.4962C37.5748 24.206 39.2709 24.502 40.7218 25.3328C42.1727 26.1635 43.2866 27.4765 43.8698 29.0433C44.3713 30.3875 43.366 31.5622 42.2353 31.7602L32.4866 33.4805C31.357 33.6784 30.0107 32.9195 30.0206 31.4852C30.0327 29.8133 30.6304 28.1986 31.7097 26.9217C32.7891 25.6448 34.2818 24.7866 35.9283 24.4962Z" fill="#1FABAD"></path><path d="M5.50342 18.8896C5.50342 18.0145 5.85107 17.1752 6.4699 16.5563C7.08873 15.9375 7.92805 15.5898 8.80321 15.5898H18.7026C19.5777 15.5898 20.417 15.9375 21.0359 16.5563C21.6547 17.1752 22.0024 18.0145 22.0024 18.8896V19.9896H5.50342V18.8896Z" fill="#1FABAD"></path><path fill-rule="evenodd" clip-rule="evenodd" d="M21.8154 17.7897C21.9364 18.134 22.0024 18.5047 22.0024 18.8896V19.9896H5.50342V18.8896C5.5027 18.4561 5.58756 18.0267 5.75313 17.626C5.9187 17.2253 6.16173 16.8613 6.46829 16.5547C6.77485 16.2482 7.1389 16.0051 7.53958 15.8396C7.94025 15.674 8.36967 15.5891 8.80321 15.5898H18.7026C20.1391 15.5898 21.3622 16.5083 21.8154 17.7897Z" fill="#1FABAD"></path><path d="M0.00366211 31.6488C0.00366211 26.4242 4.97094 22.1895 11.0975 22.1895H19.974C20.4865 22.1895 20.9023 22.5436 20.9023 22.9814V30.1089C20.9023 31.2023 19.8629 32.0888 18.5804 32.0888H0.519529C0.234647 32.0888 0.00366211 31.8908 0.00366211 31.6488Z" fill="#1FABAD"></path><path fill-rule="evenodd" clip-rule="evenodd" d="M18.7025 24.3892H11.0975C6.69013 24.3892 3.41784 26.8992 2.4785 29.8888H18.5804C18.6215 29.8891 18.6625 29.8843 18.7025 29.8745V24.3892ZM11.0975 22.1893C4.97094 22.1893 0.00366211 26.424 0.00366211 31.6487C0.00366211 31.8907 0.234647 32.0887 0.520628 32.0887H18.5804C19.8629 32.0887 20.9023 31.2021 20.9023 30.1088V22.9812C20.9023 22.5435 20.4865 22.1893 19.974 22.1893H11.0975ZM29.4873 16.209L27.5019 32.0887H31.3516L34.1015 27.3271V16.6897H31.3516C30.6994 16.6907 30.0577 16.5253 29.4873 16.209Z" fill="#1FABAD"></path><path d="M27.502 10.6403C27.502 9.61926 27.9075 8.64006 28.6295 7.91809C29.3515 7.19613 30.3307 6.79053 31.3517 6.79053H35.6249C35.9989 6.79053 36.3014 7.09301 36.3014 7.46698V13.8136C36.3014 14.1875 35.9978 14.49 35.6249 14.49H31.3517C30.3307 14.49 29.3515 14.0844 28.6295 13.3625C27.9075 12.6405 27.502 11.6613 27.502 10.6403Z" fill="#1FABAD"></path><path fill-rule="evenodd" clip-rule="evenodd" d="M34.1015 8.99039H31.3517C30.9141 8.99039 30.4945 9.16421 30.1851 9.47363C29.8756 9.78304 29.7018 10.2027 29.7018 10.6403C29.7018 11.0779 29.8756 11.4975 30.1851 11.8069C30.4945 12.1163 30.9141 12.2902 31.3517 12.2902H34.1015V8.99039ZM31.3517 6.79053C30.3307 6.79053 29.3515 7.19613 28.6295 7.91809C27.9075 8.64006 27.502 9.61926 27.502 10.6403C27.502 11.6613 27.9075 12.6405 28.6295 13.3625C29.3515 14.0844 30.3307 14.49 31.3517 14.49H35.6249C35.9989 14.49 36.3014 14.1864 36.3014 13.8136V7.46698C36.3014 7.28758 36.2301 7.11552 36.1033 6.98866C35.9764 6.8618 35.8043 6.79053 35.6249 6.79053H31.3517Z" fill="#1FABAD"></path><path d="M23.4827 7.89062L28.8998 8.84316L28.5182 11.01L23.1021 10.0575L23.4827 7.89062ZM18.7024 24.3896H29.7017L27.7603 32.0891H18.7024V24.3896Z" fill="#1FABAD"></path></g><defs><clipPath id="clip0_212_960"><rect width="44" height="44" fill="white" transform="translate(0.00244141 0.189453)"></rect></clipPath></defs></svg>